# xmcd
#
# Track frame offsets:
#	150
#	22490
#	40272
#	70760
#	92607
#	121929
#	144100
#	159190
#	183148
#	203248
#
# Disc length: 2989 seconds
#
# Revision: 1
# Processed by: cddbd v1.5PL3 Copyright (c) Steve Scherf et al.
# Submitted via: EasyCDDAExtractor 7.0.4.1
#
DISCID=7d0bab0a
DTITLE=Mid Calvary Blues Band - Blues 'n' White
DYEAR=2004
DGENRE=Blues
TTITLE0=White
TTITLE1=Personal Judgement Day
TTITLE2=Lost Ship
TTITLE3=If You're Looking For Trouble
TTITLE4=Where Would I Be
TTITLE5=Forgive Me
TTITLE6=Queen Of My Heart
TTITLE7=My God Is Real
TTITLE8=The Mission
TTITLE9=There'll Be No Dark Valley
EXTD=
EXTT0=Heikki Kervinen
EXTT1=Steve Wiggins, Big Tent Revival, 1995 Photon Music (BMI)
EXTT2=Larry Howard and Gary Montgomery, Bridgehead Music (BMI)
EXTT3=Jessy Dixon, Seaside Records - Viva Art Music Europe
EXTT4=Glenn Kaiser, Grrr Music (ASCAP)
EXTT5=Heikki Kervinen
EXTT6=Glenn Kaiser, Grrr Music (ASCAP)
EXTT7=Kenneth Morris, Hill and Range Song, Inc.
EXTT8=Darrell Mansfield, Summer grace (BMI)
EXTT9=Trad., Music Mission Publishing (ASCAP) and Brownsville Music
PLAYORDER=
